# xmcd CD database file
#
# Track frame offsets:
#	150
#	12937
#	25980
#	38641
#	51723
#	66223
#	76990
#	85179
#	97572
#	109559
#	121127
#
# Disc length: 1686 seconds
#
# Revision: 0
# Processed by: cddbd v1.5.2PL0 Copyright (c) Steve Scherf et al.
# Submitted via: CDex 1.70beta2
#
DISCID=7c06940b
DTITLE=The Honeybirds - Pennies From Heaven
DYEAR=2014
DGENRE=Jazz
TTITLE0=Alexander's Ragtime Band
TTITLE1=Beat Me Daddy, Eight to the Bar
TTITLE2=A-Tisket A-Tasket
TTITLE3=I'll Be With You In Apple Blossom Time
TTITLE4=Bei Mir Bist Du Schön
TTITLE5=Bounce Me Brother, With a Solid Four
TTITLE6=Pennies From Heaven
TTITLE7=Chattanooga Choo Choo
TTITLE8=Straighten Up and Fly Right
TTITLE9=In the Mood
TTITLE10=I Like Pie, I Like Cake
EXTD=YEAR: 2014
EXTT0=
EXTT1=
EXTT2=
EXTT3=
EXTT4=
EXTT5=
EXTT6=
EXTT7=
EXTT8=
EXTT9=
EXTT10=
PLAYORDER=
